<?xml version="1.0" encoding="UTF-8" standalone="no"?>
<svg
   xmlns:dc="http://purl.org/dc/elements/1.1/"
   xmlns:cc="http://creativecommons.org/ns#"
   xmlns:rdf="http://www.w3.org/1999/02/22-rdf-syntax-ns#"
   xmlns:svg="http://www.w3.org/2000/svg"
   xmlns="http://www.w3.org/2000/svg"
   xmlns:sodipodi="http://sodipodi.sourceforge.net/DTD/sodipodi-0.dtd"
   xmlns:inkscape="http://www.inkscape.org/namespaces/inkscape"
   width="183.23"
   height="77"
   version="1.1"
   id="svg12"
   sodipodi:docname="BFH-logo-text.svg"
   inkscape:version="0.92.2 2405546, 2018-03-11">
  <metadata
     id="metadata18">
    <rdf:RDF>
      <cc:Work
         rdf:about="">
        <dc:format>image/svg+xml</dc:format>
        <dc:type
           rdf:resource="http://purl.org/dc/dcmitype/StillImage" />
        <dc:title></dc:title>
      </cc:Work>
    </rdf:RDF>
  </metadata>
  <defs
     id="defs16" />
  <sodipodi:namedview
     pagecolor="#ffffff"
     bordercolor="#666666"
     borderopacity="1"
     objecttolerance="10"
     gridtolerance="10"
     guidetolerance="10"
     inkscape:pageopacity="0"
     inkscape:pageshadow="2"
     inkscape:window-width="2560"
     inkscape:window-height="1398"
     id="namedview14"
     showgrid="false"
     fit-margin-top="0"
     fit-margin-left="0"
     fit-margin-right="0"
     fit-margin-bottom="0"
     inkscape:zoom="0.75502008"
     inkscape:cx="249"
     inkscape:cy="38.5"
     inkscape:window-x="0"
     inkscape:window-y="0"
     inkscape:window-maximized="1"
     inkscape:current-layer="svg12" />
  <g
     id="g831">
    <path
       id="path2"
       d="m 26.535,0 c 11.087,0 20.08,8.988 20.08,20.08 0,7.448 -3.454,13.913 -9.04,17.417 -0.109,0.07 -0.188,0.173 -0.188,0.309 0,0.245 0.194,0.308 0.208,0.313 7.246,2.805 11.793,10.204 11.793,18.798 C 49.388,68.011 40.393,77 29.305,77 L 2.787,76.994 A 2.787,2.787 0 0 1 0,74.21 V 2.787 A 2.787,2.787 0 0 1 2.787,0 h 23.748"
       inkscape:connector-curvature="0"
       style="fill:#697d91" />
    <path
       id="path4"
       d="M 16.826,63.366 A 0.668,0.668 0 0 1 16.17,62.709 V 46.607 c 0,-0.353 0.303,-0.657 0.656,-0.657 h 1.011 c 0.353,0 0.66,0.304 0.66,0.657 v 7.133 h 6.268 v -7.133 a 0.67,0.67 0 0 1 0.657,-0.657 h 1.01 a 0.67,0.67 0 0 1 0.657,0.657 v 16.102 a 0.669,0.669 0 0 1 -0.656,0.657 h -1.011 a 0.669,0.669 0 0 1 -0.657,-0.657 v -6.922 h -6.268 v 6.922 a 0.671,0.671 0 0 1 -0.66,0.657 h -1.01 M 16.76,30.988 A 0.668,0.668 0 0 1 16.103,30.331 V 14.227 c 0,-0.354 0.302,-0.66 0.657,-0.66 h 9.687 c 0.353,0 0.656,0.306 0.656,0.66 v 0.682 a 0.669,0.669 0 0 1 -0.656,0.657 h -8.018 v 5.597 h 6.828 a 0.67,0.67 0 0 1 0.659,0.657 v 0.685 a 0.67,0.67 0 0 1 -0.66,0.657 H 18.43 v 7.17 a 0.668,0.668 0 0 1 -0.656,0.656 H 16.76"
       inkscape:connector-curvature="0"
       style="fill:#fac300" />
    <path
       id="path6"
       d="m 64.35,10.9 c 1.94,0 3.04,-0.82 3.04,-2.78 C 67.39,6.7 66.71,5.99 65.78,5.75 66.73,5.36 67,4.78 67,3.75 67,2.12 66.13,1.21 64.34,1.21 h -2.81 c -0.24,0 -0.44,0.2 -0.44,0.44 v 8.82 c 0,0.24 0.2,0.43 0.44,0.43 z M 62.76,6.58 h 1.36 c 1.12,0 1.47,0.49 1.47,1.45 0,1.02 -0.42,1.47 -1.5,1.47 h -1.33 z m 0,-3.97 h 1.26 c 0.94,0 1.24,0.44 1.24,1.29 0,0.87 -0.25,1.3 -1.19,1.3 h -1.31 z m 11.6,7.91 c 0.2,-0.14 0.26,-0.4 0.12,-0.6 L 74.21,9.54 a 0.444,0.444 0 0 0 -0.6,-0.12 c -0.35,0.22 -0.74,0.38 -1.28,0.38 -1,0 -1.4,-0.37 -1.45,-1.99 h 3.74 c 0.12,0 0.23,-0.11 0.23,-0.25 V 7.29 c 0,-2.59 -0.89,-3.65 -2.8,-3.65 -1.77,0 -2.87,1.02 -2.87,3.71 0,2.66 1.05,3.73 3.17,3.73 0.84,0 1.47,-0.21 2.01,-0.56 z M 73.22,6.67 h -2.33 c 0.09,-1.48 0.46,-1.84 1.18,-1.84 0.88,0 1.13,0.47 1.15,1.84 z m 4.97,4.23 c 0.23,0 0.43,-0.19 0.43,-0.43 V 5.78 c 0.41,-0.35 0.76,-0.52 1.3,-0.52 0.11,0 0.23,0.01 0.31,0.03 0.15,0.03 0.29,-0.07 0.31,-0.21 L 80.72,3.93 C 80.72,3.79 80.65,3.72 80.55,3.71 80.48,3.69 80.4,3.69 80.33,3.69 79.59,3.69 78.96,4.1 78.48,4.71 L 78.38,4.24 A 0.52,0.52 0 0 0 77.86,3.82 h -0.4 c -0.24,0 -0.44,0.19 -0.44,0.43 v 6.22 c 0,0.24 0.2,0.43 0.44,0.43 z m 5.54,0 c 0.24,0 0.43,-0.19 0.43,-0.43 V 5.6 c 0.41,-0.37 0.86,-0.63 1.36,-0.63 0.52,0 0.76,0.18 0.76,0.92 v 4.58 c 0,0.24 0.19,0.43 0.43,0.43 h 0.73 c 0.24,0 0.43,-0.19 0.43,-0.43 V 5.48 c 0,-1.33 -0.65,-1.84 -1.77,-1.84 -0.87,0 -1.52,0.39 -2.09,0.95 L 83.94,4.24 A 0.555,0.555 0 0 0 83.41,3.82 H 83 c -0.24,0 -0.43,0.19 -0.43,0.43 v 6.22 c 0,0.24 0.19,0.43 0.43,0.43 z m 15.6,-0.78 0.12,0.36 c 0.07,0.25 0.31,0.42 0.56,0.42 h 0.37 c 0.23,0 0.43,-0.19 0.43,-0.43 V 1.65 c 0,-0.24 -0.2,-0.44 -0.43,-0.44 h -0.83 c -0.24,0 -0.43,0.2 -0.43,0.44 v 7.31 c -0.35,0.3 -0.91,0.67 -1.74,0.67 -1.06,0 -1.29,-0.53 -1.29,-1.71 V 1.65 c 0,-0.24 -0.19,-0.44 -0.43,-0.44 h -0.83 c -0.24,0 -0.43,0.2 -0.43,0.44 v 6.26 c 0,2.35 1.17,3.17 2.71,3.17 1.04,0 1.73,-0.44 2.22,-0.96 z m 5.36,0.78 c 0.24,0 0.43,-0.19 0.43,-0.43 V 5.6 c 0.41,-0.37 0.86,-0.63 1.36,-0.63 0.52,0 0.76,0.18 0.76,0.92 v 4.58 c 0,0.24 0.19,0.43 0.43,0.43 h 0.73 c 0.24,0 0.43,-0.19 0.43,-0.43 V 5.48 c 0,-1.33 -0.66,-1.84 -1.78,-1.84 -0.86,0 -1.51,0.39 -2.08,0.95 L 104.9,4.24 a 0.555,0.555 0 0 0 -0.53,-0.42 h -0.41 c -0.24,0 -0.43,0.19 -0.43,0.43 v 6.22 c 0,0.24 0.19,0.43 0.43,0.43 z m 8.2,0 c 0.24,0 0.44,-0.19 0.44,-0.43 V 4.25 c 0,-0.24 -0.2,-0.43 -0.44,-0.43 h -1.64 c -0.23,0 -0.43,0.19 -0.43,0.43 v 0.17 c 0,0.25 0.18,0.46 0.42,0.52 l 0.5,0.08 v 5.45 c 0,0.24 0.2,0.43 0.44,0.43 z m 0.66,-9.17 c 0,-0.59 -0.45,-1.03 -1.02,-1.03 -0.58,0 -1.02,0.46 -1.02,1.03 0,0.58 0.44,1.02 1,1.02 0.59,0 1.04,-0.44 1.04,-1.02 z m 5.04,9.17 c 0.25,0 0.49,-0.17 0.57,-0.4 l 2.08,-6.28 c 0.07,-0.19 -0.09,-0.4 -0.3,-0.4 h -0.77 c -0.25,0 -0.49,0.17 -0.56,0.42 l -0.82,2.84 c -0.17,0.6 -0.35,1.5 -0.44,2.02 h -0.01 C 118.2,8.51 118.02,7.63 117.88,7.15 l -0.86,-2.91 a 0.588,0.588 0 0 0 -0.56,-0.42 h -0.82 c -0.21,0 -0.37,0.21 -0.3,0.4 l 2.09,6.28 c 0.08,0.23 0.32,0.4 0.57,0.4 z m 9.32,-0.38 c 0.2,-0.14 0.26,-0.4 0.12,-0.6 l -0.27,-0.38 a 0.444,0.444 0 0 0 -0.6,-0.12 c -0.35,0.22 -0.74,0.38 -1.28,0.38 -1,0 -1.4,-0.37 -1.45,-1.99 h 3.74 c 0.12,0 0.23,-0.11 0.23,-0.25 V 7.29 c 0,-2.59 -0.89,-3.65 -2.8,-3.65 -1.77,0 -2.87,1.02 -2.87,3.71 0,2.66 1.05,3.73 3.17,3.73 0.84,0 1.47,-0.21 2.01,-0.56 z m -1.14,-3.85 h -2.33 c 0.09,-1.48 0.46,-1.84 1.18,-1.84 0.88,0 1.13,0.47 1.15,1.84 z m 4.97,4.23 c 0.23,0 0.43,-0.19 0.43,-0.43 V 5.78 c 0.41,-0.35 0.76,-0.52 1.3,-0.52 0.11,0 0.23,0.01 0.31,0.03 0.15,0.03 0.29,-0.07 0.31,-0.21 l 0.18,-1.15 c 0,-0.14 -0.07,-0.21 -0.17,-0.22 -0.07,-0.02 -0.15,-0.02 -0.22,-0.02 -0.74,0 -1.37,0.41 -1.85,1.02 l -0.1,-0.47 a 0.52,0.52 0 0 0 -0.52,-0.42 h -0.4 c -0.24,0 -0.44,0.19 -0.44,0.43 v 6.22 c 0,0.24 0.2,0.43 0.44,0.43 z m 8.76,-2.04 c 0,-1.56 -0.92,-1.99 -2.02,-2.28 -0.88,-0.24 -1.13,-0.37 -1.13,-0.93 0,-0.49 0.31,-0.71 0.91,-0.71 0.41,0 0.74,0.05 1.11,0.19 0.21,0.09 0.46,-0.02 0.54,-0.25 l 0.16,-0.4 A 0.464,0.464 0 0 0 139.81,3.9 c -0.46,-0.17 -0.96,-0.26 -1.68,-0.26 -1.54,0 -2.31,0.82 -2.31,2.04 0,1.36 0.76,1.93 1.74,2.2 1.02,0.28 1.36,0.4 1.36,1.05 0,0.56 -0.3,0.84 -1.11,0.84 -0.5,0 -0.96,-0.14 -1.4,-0.37 a 0.415,0.415 0 0 0 -0.57,0.2 l -0.2,0.41 c -0.1,0.21 -0.01,0.47 0.21,0.58 0.53,0.27 1.28,0.49 2.1,0.49 1.72,0 2.55,-0.75 2.55,-2.22 z m 3.68,2.04 c 0.24,0 0.44,-0.19 0.44,-0.43 V 4.25 c 0,-0.24 -0.2,-0.43 -0.44,-0.43 h -1.64 c -0.23,0 -0.43,0.19 -0.43,0.43 v 0.17 c 0,0.25 0.18,0.46 0.42,0.52 l 0.5,0.08 v 5.45 c 0,0.24 0.2,0.43 0.44,0.43 z m 0.66,-9.17 c 0,-0.59 -0.45,-1.03 -1.02,-1.03 -0.58,0 -1.02,0.46 -1.02,1.03 0,0.58 0.44,1.02 1,1.02 0.59,0 1.04,-0.44 1.04,-1.02 z m 2.56,3.32 v 4.4 c 0,1.23 0.76,1.63 1.85,1.63 0.34,0 0.6,-0.05 0.83,-0.12 0.23,-0.07 0.37,-0.32 0.32,-0.56 l -0.09,-0.37 a 0.311,0.311 0 0 0 -0.4,-0.23 c -0.11,0.02 -0.24,0.05 -0.38,0.05 -0.36,0 -0.55,-0.17 -0.55,-0.7 v -4.1 h 0.96 c 0.23,0 0.43,-0.2 0.43,-0.43 V 4.25 c 0,-0.24 -0.2,-0.43 -0.43,-0.43 h -0.96 V 2.17 c 0,-0.23 -0.21,-0.4 -0.42,-0.35 l -0.74,0.14 C 147.58,2 147.4,2.22 147.4,2.47 v 1.35 h -0.33 c -0.24,0 -0.44,0.19 -0.44,0.43 v 0.37 c 0,0.23 0.2,0.43 0.44,0.43 z m 8.29,6.01 2.11,-6.82 c 0.06,-0.21 -0.08,-0.42 -0.3,-0.42 h -0.79 c -0.25,0 -0.47,0.17 -0.54,0.42 l -0.94,3.46 c -0.2,0.7 -0.3,1.33 -0.38,1.8 h -0.01 C 154.77,9 154.65,8.45 154.46,7.71 L 153.55,4.24 A 0.588,0.588 0 0 0 153,3.82 h -0.82 c -0.23,0 -0.37,0.21 -0.31,0.42 l 1.93,6.3 c 0.07,0.21 0.27,0.36 0.49,0.36 h 0.01 c -0.33,0.93 -0.68,1.26 -1.56,1.49 -0.23,0.05 -0.37,0.3 -0.31,0.53 l 0.11,0.46 c 0.07,0.22 0.31,0.38 0.55,0.34 1.42,-0.3 2,-0.77 2.6,-2.66 z m -89.08,13.3 c 0,-2.66 -1.16,-3.72 -3,-3.72 -1.83,0 -2.97,1.03 -2.97,3.71 0,2.66 1.15,3.73 2.99,3.73 1.83,0 2.98,-1.06 2.98,-3.72 z m -4.27,0 c 0,-2.03 0.35,-2.52 1.27,-2.52 0.93,0 1.29,0.48 1.29,2.51 0,2 -0.35,2.53 -1.27,2.53 -0.93,0 -1.29,-0.52 -1.29,-2.52 z m 6.54,-2.31 v 5.42 c 0,0.24 0.19,0.43 0.43,0.43 h 0.71 c 0.24,0 0.44,-0.19 0.44,-0.43 v -5.42 h 0.82 c 0.24,0 0.44,-0.2 0.44,-0.43 v -0.37 c 0,-0.24 -0.2,-0.43 -0.44,-0.43 h -0.82 v -1.08 c 0,-0.59 0.21,-0.83 0.7,-0.83 0.15,0 0.29,0.02 0.42,0.05 0.22,0.05 0.45,-0.07 0.53,-0.27 l 0.14,-0.36 A 0.433,0.433 0 0 0 72,17.78 c -0.32,-0.1 -0.7,-0.17 -1.15,-0.17 -1.06,0 -1.97,0.39 -1.97,2.23 v 0.98 h -0.33 c -0.23,0 -0.43,0.19 -0.43,0.43 v 0.37 c 0,0.23 0.2,0.43 0.43,0.43 z m 9.26,5.85 c 0.26,0 0.48,-0.17 0.55,-0.42 l 0.53,-1.97 h 2.63 l 0.51,1.97 c 0.07,0.24 0.29,0.42 0.54,0.42 h 0.96 c 0.22,0 0.37,-0.21 0.32,-0.42 L 81.64,18.63 C 81.59,18.38 81.35,18.21 81.1,18.21 h -0.93 c -0.25,0 -0.49,0.17 -0.56,0.42 l -2.63,8.85 c -0.07,0.21 0.09,0.42 0.31,0.42 z m 2.43,-7.78 h 0.02 c 0.1,0.61 0.2,1.22 0.51,2.41 l 0.42,1.65 h -1.93 l 0.44,-1.65 c 0.33,-1.17 0.44,-1.78 0.54,-2.41 z m 6.73,10.54 c 0.24,0 0.43,-0.2 0.43,-0.43 v -2.86 c 0.4,0.36 1,0.71 1.75,0.71 1.63,0 2.4,-1 2.4,-3.82 0,-2.84 -0.97,-3.62 -2.4,-3.62 -0.72,0 -1.35,0.35 -1.89,0.92 l -0.08,-0.32 a 0.555,0.555 0 0 0 -0.53,-0.42 h -0.41 c -0.24,0 -0.43,0.19 -0.43,0.43 v 8.98 c 0,0.23 0.19,0.43 0.43,0.43 z m 0.43,-4.42 v -3.67 c 0.38,-0.37 0.76,-0.63 1.33,-0.63 0.84,0 1.11,0.4 1.11,2.41 0,2.04 -0.31,2.42 -1.2,2.42 -0.49,0 -0.93,-0.24 -1.24,-0.53 z m 7.54,4.42 c 0.23,0 0.43,-0.2 0.43,-0.43 v -2.86 c 0.39,0.36 0.99,0.71 1.75,0.71 1.62,0 2.39,-1 2.39,-3.82 0,-2.84 -0.96,-3.62 -2.39,-3.62 -0.73,0 -1.36,0.35 -1.89,0.92 l -0.08,-0.32 a 0.558,0.558 0 0 0 -0.54,-0.42 h -0.4 c -0.24,0 -0.44,0.19 -0.44,0.43 v 8.98 c 0,0.23 0.2,0.43 0.44,0.43 z m 0.43,-4.42 v -3.67 c 0.38,-0.37 0.76,-0.63 1.33,-0.63 0.84,0 1.11,0.4 1.11,2.41 0,2.04 -0.31,2.42 -1.21,2.42 -0.49,0 -0.92,-0.24 -1.23,-0.53 z m 8.48,1.75 c 0.24,-0.05 0.37,-0.24 0.34,-0.47 l -0.04,-0.29 c -0.04,-0.28 -0.23,-0.36 -0.51,-0.45 -0.19,-0.05 -0.29,-0.21 -0.29,-0.52 v -8.12 c 0,-0.23 -0.2,-0.43 -0.43,-0.43 h -0.73 c -0.24,0 -0.44,0.2 -0.44,0.43 v 7.93 c 0,1.38 0.31,1.99 1.52,1.99 0.19,0 0.4,-0.03 0.58,-0.07 z m 3.8,-0.09 c 0.24,0 0.43,-0.19 0.43,-0.43 v -6.22 c 0,-0.24 -0.19,-0.43 -0.43,-0.43 h -1.64 c -0.24,0 -0.43,0.19 -0.43,0.43 v 0.17 c 0,0.25 0.18,0.46 0.42,0.52 l 0.5,0.08 v 5.45 c 0,0.24 0.2,0.43 0.43,0.43 z m 0.66,-9.17 c 0,-0.59 -0.45,-1.03 -1.03,-1.03 -0.57,0 -1.02,0.46 -1.02,1.03 0,0.58 0.45,1.02 1.01,1.02 0.59,0 1.04,-0.44 1.04,-1.02 z m 7.18,8.79 c 0.19,-0.14 0.25,-0.4 0.11,-0.6 l -0.27,-0.38 a 0.44,0.44 0 0 0 -0.6,-0.12 c -0.35,0.22 -0.74,0.38 -1.27,0.38 -1.01,0 -1.4,-0.37 -1.46,-1.99 h 3.74 c 0.13,0 0.24,-0.11 0.24,-0.25 v -0.27 c 0,-2.59 -0.9,-3.65 -2.8,-3.65 -1.78,0 -2.87,1.02 -2.87,3.71 0,2.66 1.05,3.73 3.16,3.73 0.84,0 1.47,-0.21 2.02,-0.56 z m -1.15,-3.85 h -2.32 c 0.08,-1.48 0.46,-1.84 1.17,-1.84 0.88,0 1.14,0.47 1.15,1.84 z m 7.76,3.53 0.07,0.28 c 0.07,0.24 0.29,0.42 0.54,0.42 h 0.41 c 0.24,0 0.43,-0.19 0.43,-0.43 v -9.33 c 0,-0.23 -0.19,-0.43 -0.43,-0.43 h -0.73 c -0.24,0 -0.43,0.2 -0.43,0.43 v 3.25 c -0.4,-0.36 -1,-0.75 -1.75,-0.75 -1.63,0 -2.4,0.96 -2.4,3.78 0,2.85 1.01,3.66 2.44,3.66 0.73,0 1.31,-0.3 1.85,-0.88 z m -2.58,-2.84 c 0,-2.03 0.31,-2.42 1.19,-2.42 0.5,0 0.94,0.29 1.25,0.59 v 3.66 c -0.38,0.37 -0.77,0.58 -1.35,0.58 -0.82,0 -1.09,-0.39 -1.09,-2.41 z m 16.24,0.8 c 0,-2.05 -1.25,-2.58 -2.77,-3.11 -1.02,-0.35 -1.33,-0.63 -1.33,-1.44 0,-0.79 0.49,-1.15 1.31,-1.15 0.54,0 0.93,0.1 1.35,0.31 0.21,0.11 0.47,0.03 0.57,-0.18 l 0.25,-0.52 c 0.12,-0.21 0.02,-0.48 -0.19,-0.59 -0.56,-0.29 -1.19,-0.45 -2.1,-0.45 -1.74,0 -2.89,0.87 -2.89,2.68 0,1.76 0.87,2.39 2.48,2.95 1.02,0.36 1.57,0.64 1.57,1.62 0,0.84 -0.46,1.36 -1.58,1.36 -0.73,0 -1.3,-0.17 -1.88,-0.53 a 0.406,0.406 0 0 0 -0.56,0.17 l -0.25,0.5 c -0.11,0.23 -0.03,0.49 0.18,0.62 0.67,0.4 1.63,0.68 2.65,0.68 2.41,0 3.19,-1.28 3.19,-2.92 z m 6.62,2.36 c 0.18,-0.14 0.23,-0.4 0.09,-0.6 l -0.27,-0.36 a 0.463,0.463 0 0 0 -0.62,-0.09 c -0.23,0.19 -0.5,0.31 -0.89,0.31 -0.97,0 -1.32,-0.47 -1.32,-2.46 0,-2 0.34,-2.38 1.25,-2.38 0.36,0 0.63,0.1 0.88,0.28 0.2,0.14 0.46,0.11 0.62,-0.09 l 0.28,-0.36 c 0.15,-0.18 0.11,-0.46 -0.09,-0.6 -0.5,-0.38 -1.05,-0.53 -1.76,-0.53 -1.85,0 -2.89,1.05 -2.89,3.71 0,2.54 0.98,3.73 2.93,3.73 0.76,0 1.33,-0.21 1.79,-0.56 z m 3.82,0.38 c 0.24,0 0.44,-0.19 0.44,-0.43 v -6.22 c 0,-0.24 -0.2,-0.43 -0.44,-0.43 h -1.63 c -0.24,0 -0.44,0.19 -0.44,0.43 v 0.17 c 0,0.25 0.18,0.46 0.42,0.52 l 0.51,0.08 v 5.45 c 0,0.24 0.19,0.43 0.43,0.43 z m 0.66,-9.17 c 0,-0.59 -0.45,-1.03 -1.02,-1.03 -0.57,0 -1.02,0.46 -1.02,1.03 0,0.58 0.45,1.02 1.01,1.02 0.58,0 1.03,-0.44 1.03,-1.02 z m 7.18,8.79 c 0.2,-0.14 0.26,-0.4 0.12,-0.6 l -0.27,-0.38 a 0.444,0.444 0 0 0 -0.6,-0.12 c -0.35,0.22 -0.74,0.38 -1.28,0.38 -1,0 -1.4,-0.37 -1.45,-1.99 h 3.74 c 0.12,0 0.23,-0.11 0.23,-0.25 v -0.27 c 0,-2.59 -0.89,-3.65 -2.8,-3.65 -1.77,0 -2.87,1.02 -2.87,3.71 0,2.66 1.05,3.73 3.17,3.73 0.84,0 1.47,-0.21 2.01,-0.56 z m -1.14,-3.85 h -2.33 c 0.09,-1.48 0.46,-1.84 1.18,-1.84 0.88,0 1.13,0.47 1.15,1.84 z m 4.97,4.23 c 0.23,0 0.43,-0.19 0.43,-0.43 V 22.6 c 0.41,-0.37 0.85,-0.63 1.36,-0.63 0.52,0 0.75,0.18 0.75,0.92 v 4.58 c 0,0.24 0.2,0.43 0.44,0.43 h 0.73 c 0.23,0 0.43,-0.19 0.43,-0.43 v -4.99 c 0,-1.33 -0.66,-1.84 -1.78,-1.84 -0.87,0 -1.51,0.39 -2.08,0.95 l -0.07,-0.35 a 0.558,0.558 0 0 0 -0.54,-0.42 h -0.4 c -0.24,0 -0.44,0.19 -0.44,0.43 v 6.22 c 0,0.24 0.2,0.43 0.44,0.43 z m 10.99,-0.38 c 0.18,-0.14 0.22,-0.4 0.08,-0.6 L 169,26.56 a 0.452,0.452 0 0 0 -0.61,-0.09 c -0.24,0.19 -0.51,0.31 -0.9,0.31 -0.96,0 -1.31,-0.47 -1.31,-2.46 0,-2 0.33,-2.38 1.24,-2.38 0.37,0 0.63,0.1 0.88,0.28 0.2,0.14 0.47,0.11 0.62,-0.09 l 0.28,-0.36 c 0.15,-0.18 0.11,-0.46 -0.08,-0.6 -0.51,-0.38 -1.05,-0.53 -1.77,-0.53 -1.85,0 -2.88,1.05 -2.88,3.71 0,2.54 0.98,3.73 2.92,3.73 0.76,0 1.33,-0.21 1.8,-0.56 z m 7,0 c 0.19,-0.14 0.25,-0.4 0.11,-0.6 l -0.27,-0.38 a 0.44,0.44 0 0 0 -0.6,-0.12 c -0.35,0.22 -0.74,0.38 -1.27,0.38 -1.01,0 -1.4,-0.37 -1.46,-1.99 h 3.74 c 0.12,0 0.24,-0.11 0.24,-0.25 v -0.27 c 0,-2.59 -0.9,-3.65 -2.8,-3.65 -1.78,0 -2.87,1.02 -2.87,3.71 0,2.66 1.05,3.73 3.16,3.73 0.84,0 1.47,-0.21 2.02,-0.56 z m -1.15,-3.85 h -2.33 c 0.09,-1.48 0.47,-1.84 1.18,-1.84 0.88,0 1.13,0.47 1.15,1.84 z m 8.19,2.19 c 0,-1.56 -0.93,-1.99 -2.02,-2.28 -0.88,-0.24 -1.13,-0.37 -1.13,-0.93 0,-0.49 0.31,-0.71 0.91,-0.71 0.4,0 0.74,0.05 1.1,0.19 0.21,0.09 0.47,-0.02 0.55,-0.25 l 0.15,-0.4 a 0.45,0.45 0 0 0 -0.25,-0.58 c -0.46,-0.17 -0.96,-0.26 -1.68,-0.26 -1.54,0 -2.31,0.82 -2.31,2.04 0,1.36 0.76,1.93 1.74,2.2 1.02,0.28 1.36,0.4 1.36,1.05 0,0.56 -0.3,0.84 -1.11,0.84 -0.5,0 -0.97,-0.14 -1.4,-0.37 a 0.412,0.412 0 0 0 -0.57,0.2 l -0.2,0.41 c -0.1,0.21 -0.01,0.47 0.21,0.58 0.53,0.27 1.27,0.49 2.1,0.49 1.72,0 2.55,-0.75 2.55,-2.22 z"
       inkscape:connector-curvature="0"
       style="fill:#697d91" />
  </g>
</svg>
