<?xml version="1.0" encoding="UTF-8" standalone="no"?>
<svg
   xmlns:dc="http://purl.org/dc/elements/1.1/"
   xmlns:cc="http://creativecommons.org/ns#"
   xmlns:rdf="http://www.w3.org/1999/02/22-rdf-syntax-ns#"
   xmlns:svg="http://www.w3.org/2000/svg"
   xmlns="http://www.w3.org/2000/svg"
   id="svg9"
   version="1.2"
   viewBox="0 0 34.542969 53.859375"
   height="53.859375pt"
   width="34.542969pt">
  <metadata
     id="metadata15">
    <rdf:RDF>
      <cc:Work
         rdf:about="">
        <dc:format>image/svg+xml</dc:format>
        <dc:type
           rdf:resource="http://purl.org/dc/dcmitype/StillImage" />
        <dc:title />
      </cc:Work>
    </rdf:RDF>
  </metadata>
  <defs
     id="defs13" />
  <g
     id="surface214">
    <path
       id="path2"
       d="m 18.558594,0 c 7.757812,0 14.046875,6.289062 14.046875,14.046875 0,5.207031 -2.414063,9.730469 -6.324219,12.179687 -0.07422,0.05078 -0.128906,0.121094 -0.128906,0.21875 0,0.171876 0.132812,0.214844 0.144531,0.21875 5.066406,1.960938 8.246094,7.136719 8.246094,13.148438 0,7.757812 -6.289063,14.046875 -14.046875,14.046875 L 1.949219,53.855469 C 0.875,53.855469 0,52.980469 0,51.90625 V 1.949219 C 0,0.871094 0.875,0 1.949219,0 h 16.609375"
       style="fill:#667d8f;fill-opacity:1;fill-rule:nonzero;stroke:none" />
    <path
       id="path4"
       d="m 11.769531,44.320312 c -0.246093,0 -0.460937,-0.210937 -0.460937,-0.460937 V 32.597656 c 0,-0.246094 0.214844,-0.457031 0.460937,-0.457031 h 0.707031 c 0.25,0 0.460938,0.210937 0.460938,0.457031 v 4.992188 h 4.382812 v -4.992188 c 0,-0.246094 0.214844,-0.457031 0.460938,-0.457031 h 0.707031 c 0.246094,0 0.460938,0.210937 0.460938,0.457031 v 11.261719 c 0,0.25 -0.214844,0.460937 -0.460938,0.460937 H 17.78125 c -0.246094,0 -0.460938,-0.210937 -0.460938,-0.460937 V 39.019531 H 12.9375 v 4.839844 c 0,0.25 -0.210938,0.460937 -0.460938,0.460937 h -0.707031"
       style="fill:#fac200;fill-opacity:1;fill-rule:nonzero;stroke:none" />
    <path
       id="path6"
       d="m 11.722656,21.675781 c -0.246094,0 -0.460937,-0.214843 -0.460937,-0.460937 V 9.949219 c 0,-0.246094 0.214843,-0.457031 0.460937,-0.457031 h 6.773438 c 0.25,0 0.460937,0.210937 0.460937,0.457031 v 0.476562 c 0,0.25 -0.210937,0.460938 -0.460937,0.460938 h -5.605469 v 3.914062 h 4.777344 c 0.246093,0 0.457031,0.214844 0.457031,0.460938 v 0.480469 c 0,0.246093 -0.210938,0.457031 -0.457031,0.457031 h -4.777344 v 5.015625 c 0,0.246094 -0.210937,0.460937 -0.460937,0.460937 h -0.707032"
       style="fill:#fac200;fill-opacity:1;fill-rule:nonzero;stroke:none" />
  </g>
</svg>
