<?xml version="1.0" encoding="UTF-8" standalone="no"?>
<svg
   xmlns:dc="http://purl.org/dc/elements/1.1/"
   xmlns:cc="http://creativecommons.org/ns#"
   xmlns:rdf="http://www.w3.org/1999/02/22-rdf-syntax-ns#"
   xmlns:svg="http://www.w3.org/2000/svg"
   xmlns="http://www.w3.org/2000/svg"
   id="svg9"
   version="1.2"
   viewBox="0 0 35 54"
   height="54pt"
   width="35pt">
  <metadata
     id="metadata15">
    <rdf:RDF>
      <cc:Work
         rdf:about="">
        <dc:format>image/svg+xml</dc:format>
        <dc:type
           rdf:resource="http://purl.org/dc/dcmitype/StillImage" />
        <dc:title></dc:title>
      </cc:Work>
    </rdf:RDF>
  </metadata>
  <defs
     id="defs13" />
  <g
     id="surface214">
    <path
       id="path2"
       d="M 18.558594 0 C 26.316406 0 32.605469 6.289062 32.605469 14.046875 C 32.605469 19.253906 30.191406 23.777344 26.28125 26.226562 C 26.207031 26.277344 26.152344 26.347656 26.152344 26.445312 C 26.152344 26.617188 26.285156 26.660156 26.296875 26.664062 C 31.363281 28.625 34.542969 33.800781 34.542969 39.8125 C 34.542969 47.570312 28.253906 53.859375 20.496094 53.859375 L 1.949219 53.855469 C 0.875 53.855469 0 52.980469 0 51.90625 L 0 1.949219 C 0 0.871094 0.875 0 1.949219 0 L 18.558594 0 "
       style=" stroke:none;fill-rule:nonzero;fill:rgb(40.795898%,49.021912%,56.054688%);fill-opacity:1;" />
    <path
       id="path4"
       d="M 11.769531 44.320312 C 11.523438 44.320312 11.308594 44.109375 11.308594 43.859375 L 11.308594 32.597656 C 11.308594 32.351562 11.523438 32.140625 11.769531 32.140625 L 12.476562 32.140625 C 12.726562 32.140625 12.9375 32.351562 12.9375 32.597656 L 12.9375 37.589844 L 17.320312 37.589844 L 17.320312 32.597656 C 17.320312 32.351562 17.535156 32.140625 17.78125 32.140625 L 18.488281 32.140625 C 18.734375 32.140625 18.949219 32.351562 18.949219 32.597656 L 18.949219 43.859375 C 18.949219 44.109375 18.734375 44.320312 18.488281 44.320312 L 17.78125 44.320312 C 17.535156 44.320312 17.320312 44.109375 17.320312 43.859375 L 17.320312 39.019531 L 12.9375 39.019531 L 12.9375 43.859375 C 12.9375 44.109375 12.726562 44.320312 12.476562 44.320312 L 11.769531 44.320312 "
       style=" stroke:none;fill-rule:nonzero;fill:rgb(98.046875%,76.171875%,0%);fill-opacity:1;" />
    <path
       id="path6"
       d="M 11.722656 21.675781 C 11.476562 21.675781 11.261719 21.460938 11.261719 21.214844 L 11.261719 9.949219 C 11.261719 9.703125 11.476562 9.492188 11.722656 9.492188 L 18.496094 9.492188 C 18.746094 9.492188 18.957031 9.703125 18.957031 9.949219 L 18.957031 10.425781 C 18.957031 10.675781 18.746094 10.886719 18.496094 10.886719 L 12.890625 10.886719 L 12.890625 14.800781 L 17.667969 14.800781 C 17.914062 14.800781 18.125 15.015625 18.125 15.261719 L 18.125 15.742188 C 18.125 15.988281 17.914062 16.199219 17.667969 16.199219 L 12.890625 16.199219 L 12.890625 21.214844 C 12.890625 21.460938 12.679688 21.675781 12.429688 21.675781 L 11.722656 21.675781 "
       style=" stroke:none;fill-rule:nonzero;fill:rgb(98.046875%,76.171875%,0%);fill-opacity:1;" />
  </g>
</svg>
